<svg width="129" height="260" viewBox="0 0 129 260" fill="none" xmlns="http://www.w3.org/2000/svg">
<path d="M79.8378 194.488C81.3731 189.838 84.7313 173.688 63.4742 161.89C62.7917 161.511 62.0847 161.119 61.3392 160.738C65.3803 143.034 59.3015 130.49 49.4785 125.038C46.602 123.441 43.4327 122.501 40.1349 122.21C36.8367 121.919 33.409 122.277 29.9878 123.324C24.1949 125.121 18.6716 128.704 13.5961 133.976C13.1707 133.707 12.7325 133.464 12.3179 133.233C-4.99041 123.627 -18.1916 128.975 -24.7768 137.209C-30.7759 144.655 -33.3412 157.118 -26.269 172.508C-36.9485 182.04 -39.1657 191.519 -39.3488 197.182C-39.6396 206.617 -34.8841 214.988 -26.5953 219.589C-20.2328 223.12 -12.3085 224.178 -3.44906 222.806C0.135029 231.117 5.25303 237.299 11.6392 240.843C19.8305 245.389 29.3084 244.983 36.9693 239.738C41.6508 236.539 48.4545 229.54 50.711 215.071C65.2928 212.913 76.2373 205.526 79.8378 194.488ZM19.8229 225.735C14.8006 222.947 9.99609 214.844 8.23097 201.418C-3.9837 207.052 -13.3657 207.281 -18.4127 204.48C-24.8727 200.895 -24.2721 192.351 -13.5382 183.833C-12.761 183.217 -11.9071 182.576 -10.9907 181.939C-8.7452 180.369 -6.12566 178.81 -3.12012 177.3C-21.4133 154.996 -14.3472 138.087 4.13096 148.343C7.88488 150.426 12.1245 153.663 16.7416 158.192C17.874 156.101 19.0349 154.192 20.1888 152.474C20.7388 151.633 21.3249 150.844 21.8834 150.106C22.4173 149.355 22.9873 148.655 23.5664 147.995C26.9474 143.976 30.3252 141.429 33.3806 140.177C33.9021 139.975 34.3858 139.785 34.8912 139.672C37.3353 138.965 39.5127 139.158 41.2932 140.147C43.0737 141.135 44.4295 142.902 45.179 145.382C45.4958 146.377 45.6965 147.47 45.8037 148.677C45.9582 150.498 45.8515 152.568 45.4871 154.823C45.2431 156.325 44.8704 157.952 44.3683 159.638C43.8533 161.35 43.21 163.122 42.4373 165.019C41.6389 166.902 40.7137 168.844 39.6336 170.897C46.3068 172.801 51.4621 174.875 55.2889 176.999C60.4815 179.881 63.207 182.867 64.0184 185.642C64.0934 185.913 64.1547 186.209 64.1923 186.492C64.8834 191.068 60.3552 195.039 53.0648 197.084C47.9375 198.529 41.4684 198.999 34.4355 198.11C36.5191 221.014 27.867 230.198 19.8225 225.733L19.8229 225.735Z" fill="#EA94FF"/>
<path d="M53.0666 197.085C47.9393 198.53 41.4701 199 34.4372 198.11C36.5208 221.014 27.8688 230.198 19.8242 225.733C14.8019 222.946 9.99736 214.843 8.23223 201.417C-3.98244 207.051 -13.3644 207.28 -18.4114 204.479C-24.8715 200.893 -24.2708 192.35 -13.5369 183.832C-12.746 183.19 -11.9059 182.575 -10.9895 181.938C-8.74395 180.367 -6.12441 178.809 -3.11887 177.299C-21.4121 154.994 -14.346 138.086 4.1322 148.341C7.88612 150.425 12.1258 153.662 16.7429 158.191L16.7675 158.204C17.8998 156.114 19.0229 154.215 20.19 152.472C20.7647 151.645 21.3124 150.868 21.8847 150.105C22.4432 149.367 23.0131 148.667 23.5677 147.994C26.9487 143.974 30.3264 141.427 33.3818 140.175C33.9033 139.974 34.4117 139.797 34.8924 139.671C37.3365 138.963 39.514 139.157 41.2945 140.145C43.075 141.134 44.4308 142.901 45.1803 145.381C45.497 146.376 45.6978 147.469 45.805 148.675C45.9594 150.497 45.8528 152.567 45.4884 154.821C45.2444 156.324 44.8717 157.951 44.3695 159.637C43.8546 161.349 43.2112 163.121 42.4385 165.018C41.6402 166.901 40.715 168.843 39.6348 170.896C46.3081 172.799 51.4633 174.873 55.2901 176.997C60.4828 179.879 63.2083 182.866 64.0197 185.641C64.0947 185.911 64.1559 186.207 64.1936 186.49C64.8847 191.067 60.3565 195.038 53.0661 197.083L53.0666 197.085Z" fill="#B9F5FF"/>
<path d="M112.819 114.763C113.818 113.901 116.829 110.633 113.549 104.965C113.443 104.783 113.334 104.594 113.215 104.403C116.598 100.871 116.929 97.1306 115.414 94.5113C114.97 93.7443 114.368 93.0885 113.646 92.5647C112.924 92.0412 112.082 91.6494 111.147 91.4181C109.559 91.0317 107.787 91.0955 105.884 91.6116C105.823 91.4905 105.756 91.3736 105.692 91.2631C103.021 86.6478 99.23 86.057 96.5687 87.0488C94.1519 87.9393 91.8344 90.4647 91.3392 95C87.5521 95.7249 85.7279 97.6089 84.9019 98.8924C83.5291 101.033 83.4698 103.625 84.7487 105.835C85.7305 107.532 87.4155 108.873 89.6527 109.782C89.331 112.199 89.6584 114.335 90.6438 116.038C91.9077 118.222 94.1543 119.44 96.6506 119.288C98.1752 119.196 100.716 118.52 103.24 115.489C106.908 117.008 110.46 116.816 112.819 114.763ZM94.6257 113.679C93.8508 112.34 93.8618 109.802 95.3117 106.455C91.7093 106.067 89.5093 104.822 88.7305 103.476C87.7337 101.753 89.0548 99.8622 92.7142 99.3789C92.9791 99.344 93.265 99.3142 93.565 99.2938C94.3013 99.2415 95.1224 99.2438 96.0259 99.3108C94.8847 91.6247 98.8576 88.6948 101.709 93.622C102.288 94.623 102.82 95.9577 103.26 97.6432C103.811 97.3168 104.344 97.0362 104.848 96.7987C105.092 96.6806 105.336 96.5794 105.567 96.4862C105.795 96.3864 106.023 96.3035 106.249 96.2311C107.586 95.7701 108.719 95.6489 109.599 95.7823C109.747 95.808 109.885 95.8308 110.017 95.8748C110.68 96.0495 111.157 96.3956 111.431 96.8703C111.706 97.3451 111.775 97.9411 111.605 98.618C111.54 98.8917 111.436 99.1721 111.293 99.4658C111.077 99.9082 110.766 100.372 110.37 100.842C110.105 101.156 109.794 101.48 109.445 101.8C109.089 102.125 108.695 102.445 108.254 102.777C107.809 103.101 107.326 103.422 106.792 103.747C108.071 105.111 108.976 106.303 109.566 107.324C110.367 108.708 110.584 109.776 110.388 110.529C110.367 110.602 110.341 110.679 110.31 110.75C109.837 111.903 108.241 112.194 106.273 111.658C104.888 111.282 103.328 110.496 101.826 109.317C99.1376 114.899 95.8671 115.824 94.6259 113.679L94.6257 113.679Z" fill="#EA94FF"/>
<path d="M106.274 111.658C104.889 111.283 103.329 110.496 101.826 109.317C99.1385 114.899 95.8681 115.824 94.6268 113.679C93.8518 112.34 93.8628 109.802 95.3127 106.455C91.7103 106.067 89.5103 104.822 88.7316 103.476C87.7348 101.753 89.0558 99.8622 92.7152 99.3789C92.9868 99.34 93.2661 99.3142 93.566 99.2938C94.3023 99.2415 95.1234 99.2438 96.0269 99.3108C94.8857 91.6247 98.8586 88.6948 101.71 93.622C102.289 94.623 102.821 95.9577 103.261 97.6432L103.265 97.6498C103.816 97.3234 104.338 97.0401 104.849 96.7987C105.096 96.6872 105.331 96.5834 105.568 96.4862C105.8 96.3929 106.028 96.3101 106.25 96.2311C107.587 95.7701 108.72 95.6489 109.6 95.7823C109.748 95.8079 109.89 95.8374 110.018 95.8748C110.681 96.0495 111.158 96.3956 111.432 96.8703C111.707 97.3451 111.776 97.9411 111.606 98.618C111.541 98.8917 111.437 99.1721 111.294 99.4658C111.078 99.9082 110.767 100.372 110.371 100.842C110.106 101.156 109.795 101.48 109.446 101.8C109.09 102.125 108.696 102.445 108.255 102.777C107.81 103.101 107.327 103.422 106.793 103.747C108.072 105.111 108.977 106.303 109.567 107.324C110.368 108.708 110.585 109.776 110.389 110.529C110.368 110.602 110.342 110.679 110.311 110.75C109.838 111.903 108.242 112.194 106.274 111.658L106.274 111.658Z" fill="#B9F5FF"/>
<path d="M96.725 48.687C98.3949 49.0941 104.138 49.8177 107.672 42.0515C107.785 41.8022 107.903 41.5439 108.015 41.2725C114.322 42.1915 118.54 39.7144 120.173 36.1257C120.651 35.0748 120.891 33.9397 120.901 32.7779C120.911 31.616 120.69 30.4269 120.228 29.2593C119.437 27.2829 118.03 25.4508 116.043 23.8226C116.126 23.6662 116.198 23.5061 116.267 23.3547C119.144 17.0312 116.905 12.5625 113.84 10.4888C111.068 8.59819 106.636 8.04904 101.45 10.9531C97.8167 7.48344 94.4384 6.9727 92.4522 7.06687C89.1434 7.22876 86.3479 9.12631 84.9701 12.1545C83.9125 14.4791 83.764 17.2808 84.4913 20.3418C81.684 21.8278 79.6646 23.791 78.603 26.1242C77.2415 29.1168 77.6485 32.4211 79.6974 34.9546C80.9475 36.5029 83.5861 38.6875 88.7107 39.0726C89.8731 44.1135 92.763 47.7358 96.725 48.687ZM84.1171 28.5649C84.9519 26.73 87.6524 24.8228 92.2999 23.8302C89.9877 19.7145 89.6454 16.4388 90.4843 14.5949C91.5581 12.2348 94.5636 12.2062 97.8435 15.7233C98.0809 15.9779 98.3287 16.2587 98.5772 16.5615C99.1893 17.3032 99.8078 18.176 100.42 19.1853C107.712 12.1625 113.824 14.162 110.753 20.9128C110.129 22.2843 109.115 23.8579 107.66 25.5996C108.423 25.9374 109.123 26.2901 109.756 26.6458C110.066 26.8147 110.358 26.9977 110.632 27.1725C110.91 27.3382 111.171 27.5181 111.418 27.7023C112.918 28.7727 113.904 29.8832 114.427 30.9171C114.512 31.0939 114.592 31.2578 114.646 31.4314C114.961 32.2667 114.955 33.0339 114.659 33.6844C114.363 34.3348 113.782 34.8585 112.936 35.19C112.596 35.3286 112.22 35.4294 111.801 35.5006C111.168 35.6056 110.441 35.6261 109.642 35.5616C109.109 35.5182 108.53 35.4333 107.926 35.3048C107.312 35.1725 106.675 34.9969 105.989 34.7796C105.308 34.5529 104.603 34.2835 103.855 33.963C103.375 36.3507 102.794 38.2122 102.158 39.6102C101.294 41.5073 100.326 42.5443 99.3777 42.9056C99.2852 42.9394 99.1834 42.9691 99.0855 42.9902C97.5038 43.3599 95.988 41.8867 95.0688 39.3935C94.4201 37.6401 94.0749 35.3901 94.1895 32.905C86.2352 34.2739 82.7804 31.5037 84.1176 28.5647L84.1171 28.5649Z" fill="#EA94FF"/>
<path d="M95.0693 39.3947C94.4205 37.6414 94.0753 35.3914 94.19 32.9062C86.2356 34.2751 82.7809 31.505 84.1181 28.566C84.9529 26.7311 87.6534 24.8239 92.3009 23.8312C89.9888 19.7156 89.6464 16.4398 90.4853 14.596C91.5591 12.2358 94.5646 12.2073 97.8445 15.7243C98.0912 15.983 98.3297 16.2598 98.5782 16.5626C99.1904 17.3042 99.8088 18.1771 100.421 19.1863C107.713 12.1635 113.825 14.163 110.754 20.9138C110.13 22.2853 109.116 23.8589 107.661 25.6007L107.657 25.6097C108.42 25.9474 109.115 26.2872 109.757 26.6468C110.063 26.8247 110.35 26.9946 110.633 27.1735C110.907 27.3483 111.167 27.5281 111.419 27.7033C112.919 28.7738 113.905 29.8842 114.428 30.9181C114.513 31.0949 114.589 31.2678 114.647 31.4325C114.962 32.2677 114.956 33.0349 114.66 33.6854C114.364 34.3359 113.783 34.8596 112.937 35.1911C112.597 35.3297 112.221 35.4304 111.802 35.5017C111.169 35.6066 110.442 35.6271 109.643 35.5626C109.11 35.5193 108.531 35.4344 107.927 35.3058C107.313 35.1735 106.676 34.9979 105.99 34.7806C105.309 34.554 104.604 34.2846 103.856 33.9641C103.376 36.3518 102.795 38.2132 102.159 39.6113C101.295 41.5084 100.327 42.5453 99.3787 42.9067C99.2862 42.9405 99.1844 42.9702 99.0865 42.9913C97.5048 43.3609 95.989 41.8877 95.0699 39.3945L95.0693 39.3947Z" fill="#B9F5FF"/>
</svg>
