<svg width="139" height="267" viewBox="0 0 139 267" fill="none" xmlns="http://www.w3.org/2000/svg">
<path d="M42.8337 49.8861C39.8526 53.7717 31.3636 67.915 47.5501 86.0551C48.0698 86.6375 48.6082 87.2408 49.1867 87.8458C39.5411 103.232 41.1502 117.078 48.63 125.46C50.8204 127.915 53.5034 129.846 56.5212 131.208C59.5398 132.568 62.894 133.359 66.4694 133.497C72.5309 133.708 78.9259 132.144 85.4545 128.837C85.7675 129.231 86.1012 129.605 86.4169 129.959C99.5965 144.729 113.823 144.026 122.752 138.42C130.868 133.365 137.395 122.441 135.785 105.581C149.007 100.098 154.222 91.8768 156.26 86.5899C159.642 77.7769 157.908 68.3068 151.596 61.2335C146.751 55.8039 139.617 52.1961 130.8 50.5737C130.153 41.546 127.356 34.024 122.493 28.5743C116.256 21.5841 107.173 18.8468 98.2117 21.2766C92.7378 22.756 84.0088 27.1243 77.1137 40.0427C62.6346 37.2786 49.8682 40.6493 42.8337 49.8861ZM109.791 40.1451C113.615 44.4309 115.483 53.6642 112.729 66.9226C126.117 65.6253 135.052 68.4982 138.895 72.8051C143.814 78.3179 140.433 86.1869 127.493 90.6954C126.556 91.0217 125.539 91.3449 124.464 91.6447C121.827 92.3882 118.84 92.9974 115.505 93.4335C125.433 120.518 113.193 134.157 99.1226 118.388C96.2641 115.185 93.3268 110.732 90.4585 104.936C88.701 106.537 86.9761 107.957 85.3206 109.2C84.5245 109.812 83.7114 110.364 82.941 110.877C82.1894 111.411 81.4208 111.884 80.6565 112.316C76.1406 114.998 72.1125 116.291 68.8153 116.467C68.2565 116.485 67.737 116.506 67.2228 116.446C64.682 116.309 62.6898 115.409 61.334 113.89C59.9783 112.37 59.28 110.255 59.389 107.667C59.4175 106.623 59.5879 105.525 59.884 104.35C60.338 102.579 61.1202 100.66 62.2068 98.6511C62.932 97.3127 63.8196 95.8992 64.849 94.4726C65.899 93.0256 67.0899 91.5645 68.4442 90.0276C69.8181 88.5126 71.3312 86.9835 73.0272 85.4004C67.3528 81.4059 63.1681 77.75 60.2541 74.4844C56.3001 70.0531 54.7101 66.3356 54.8578 63.4482C54.876 63.1681 54.9156 62.8685 54.9732 62.589C55.8277 58.0402 61.411 55.7817 68.9682 56.2513C74.2854 56.5753 80.5485 58.2617 86.8963 61.4174C92.471 39.1048 103.665 33.2818 109.791 40.1467L109.791 40.1451Z" fill="#EA94FF"/>
<path d="M68.9669 56.2505C74.284 56.5745 80.5471 58.2609 86.8949 61.4166C92.4697 39.104 103.664 33.281 109.789 40.146C113.613 44.4318 115.482 53.6651 112.727 66.9235C126.116 65.6262 135.05 68.4992 138.893 72.8061C143.812 78.3188 140.432 86.1878 127.492 90.6963C126.533 91.0421 125.538 91.3458 124.463 91.6456C121.825 92.3891 118.838 92.9984 115.503 93.4344C125.432 120.519 113.192 134.158 99.1211 118.389C96.2627 115.185 93.3254 110.733 90.4571 104.936L90.4383 104.915C88.6808 106.516 86.9951 107.939 85.3192 109.201C84.5043 109.792 83.7313 110.345 82.9396 110.878C82.1692 111.391 81.4006 111.864 80.6551 112.317C76.1392 114.999 72.1111 116.292 68.8138 116.468C68.2551 116.486 67.7168 116.486 67.2213 116.447C64.6806 116.31 62.6884 115.41 61.3326 113.891C59.9768 112.371 59.2786 110.256 59.3875 107.667C59.416 106.624 59.5864 105.526 59.8826 104.351C60.3366 102.58 61.1188 100.661 62.2053 98.652C62.9305 97.3135 63.8182 95.9001 64.8475 94.4734C65.8975 93.0264 67.0884 91.5654 68.4428 90.0285C69.8166 88.5135 71.3297 86.9843 73.0258 85.4013C67.3514 81.4068 63.1666 77.7509 60.2527 74.4853C56.2986 70.054 54.7086 66.3365 54.8563 63.4491C54.8745 63.169 54.9142 62.8694 54.9718 62.5899C55.8262 58.0411 61.4096 55.7826 68.9668 56.2521L68.9669 56.2505Z" fill="#B9F5FF"/>
<path d="M17.1359 163.808C15.408 164.492 9.88729 167.442 11.6208 176.503C11.6764 176.794 11.7341 177.095 11.8045 177.405C5.66511 180.533 3.48983 185.355 4.29087 189.542C4.52544 190.768 5.02244 191.92 5.73954 192.951C6.45709 193.983 7.39482 194.894 8.53201 195.636C10.4642 196.886 12.8511 197.623 15.6211 197.819C15.6462 198.009 15.6819 198.196 15.7157 198.372C17.1272 205.75 21.8955 208.294 25.8955 208.21C29.5231 208.146 33.7772 205.862 36.5397 200.059C41.9132 200.852 45.2136 199.192 46.9076 197.868C49.7264 195.658 51.008 192.237 50.3321 188.704C49.8132 185.992 48.194 183.427 45.6399 181.18C47.1889 178.115 47.7446 175.121 47.2238 172.399C46.5558 168.907 44.1324 166.245 40.7415 165.29C38.671 164.704 34.9778 164.425 30.2148 167.286C26.0398 163.564 21.2266 162.173 17.1359 163.808ZM40.8329 173.689C41.2425 175.83 40.0508 179.2 36.5696 182.98C41.1812 185.167 43.5298 187.844 43.9413 189.995C44.4681 192.749 41.8337 194.652 36.742 193.597C36.3735 193.521 35.9793 193.428 35.5709 193.316C34.5673 193.044 33.4762 192.66 32.3055 192.152C30.258 202.904 23.6145 204.959 22.1076 197.082C21.8015 195.482 21.7132 193.46 21.9094 191.014C21.0251 191.192 20.1867 191.319 19.4054 191.4C19.0269 191.445 18.6546 191.466 18.3038 191.483C17.9551 191.51 17.6126 191.514 17.2795 191.506C15.2865 191.499 13.7232 191.134 12.6154 190.549C12.4299 190.446 12.2568 190.351 12.1011 190.232C11.3006 189.692 10.8275 189.01 10.6823 188.251C10.5371 187.492 10.7221 186.668 11.2621 185.846C11.4749 185.512 11.7444 185.188 12.0698 184.863C12.5628 184.375 13.1916 183.903 13.9369 183.461C14.4339 183.166 14.9984 182.879 15.6116 182.615C16.2355 182.349 16.9081 182.105 17.6486 181.869C18.3912 181.644 19.1818 181.441 20.0426 181.256C18.9739 178.849 18.3242 176.843 18.0122 175.212C17.5887 172.999 17.7957 171.479 18.4067 170.568C18.4672 170.48 18.5385 170.39 18.6118 170.31C19.7766 168.996 22.0346 169.349 24.4033 170.975C26.0712 172.117 27.7815 173.887 29.2328 176.152C35.3973 169.974 40.1766 170.261 40.8326 173.69L40.8329 173.689Z" fill="#EA94FF"/>
<path d="M24.4027 170.975C26.0706 172.117 27.7808 173.887 29.2322 176.152C35.3967 169.975 40.176 170.261 40.832 173.69C41.2415 175.831 40.0498 179.201 36.5686 182.98C41.1802 185.168 43.5288 187.845 43.9404 189.996C44.4672 192.75 41.8327 194.652 36.7411 193.598C36.3617 193.523 35.9784 193.428 35.5699 193.316C34.5663 193.044 33.4753 192.66 32.3045 192.152C30.257 202.905 23.6135 204.959 22.1067 197.083C21.8006 195.483 21.7122 193.461 21.9084 191.014L21.9064 191.004C21.0221 191.182 20.196 191.317 19.4045 191.401C19.0239 191.435 18.6644 191.464 18.3029 191.483C17.9521 191.5 17.6097 191.504 17.2785 191.506C15.2856 191.499 13.7222 191.135 12.6145 190.549C12.429 190.446 12.2538 190.341 12.1001 190.232C11.2996 189.692 10.8265 189.011 10.6813 188.252C10.5361 187.493 10.7211 186.668 11.2612 185.847C11.4739 185.513 11.7435 185.188 12.0688 184.864C12.5619 184.376 13.1906 183.903 13.936 183.461C14.433 183.167 14.9975 182.88 15.6107 182.616C16.2346 182.349 16.9071 182.106 17.6476 181.87C18.3902 181.644 19.1809 181.441 20.0416 181.257C18.973 178.85 18.3233 176.844 18.0112 175.213C17.5877 173 17.7948 171.479 18.4057 170.568C18.4663 170.48 18.5376 170.391 18.6108 170.311C19.7757 168.997 22.0336 169.35 24.4024 170.976L24.4027 170.975Z" fill="#B9F5FF"/>
<path d="M72.7342 234.996C71.7239 234.501 68.1535 233.232 64.8039 237.701C64.6964 237.844 64.585 237.993 64.475 238.151C60.5724 236.677 57.5276 237.669 55.9797 239.734C55.5265 240.338 55.2134 241.03 55.044 241.772C54.8747 242.513 54.8489 243.304 54.9804 244.116C55.2081 245.49 55.8509 246.859 56.892 248.179C56.8174 248.268 56.7484 248.36 56.6831 248.447C53.9557 252.085 54.7601 255.257 56.4282 257.013C57.9351 258.611 60.6912 259.584 64.4147 258.456C66.2499 261.185 68.338 261.986 69.6211 262.204C71.7591 262.565 73.8128 261.745 75.1189 260.002C76.1215 258.665 76.6099 256.894 76.5748 254.835C78.5782 254.28 80.145 253.308 81.1513 251.966C82.442 250.244 82.6458 248.074 81.6917 246.166C81.1099 245.001 79.7298 243.234 76.5077 242.268C76.4725 238.882 75.1336 236.16 72.7342 234.996ZM77.9688 249.631C77.1774 250.687 75.1831 251.527 72.0725 251.509C72.9728 254.465 72.7316 256.607 71.9364 257.668C70.9184 259.026 68.993 258.622 67.39 255.913C67.274 255.717 67.155 255.503 67.0386 255.274C66.7514 254.714 66.4786 254.069 66.2289 253.338C60.5811 256.804 56.9539 254.667 59.8656 250.782C60.4571 249.993 61.3263 249.13 62.5013 248.22C62.061 247.897 61.6628 247.573 61.3077 247.257C61.1337 247.106 60.9725 246.948 60.822 246.797C60.6677 246.652 60.5262 246.501 60.3941 246.348C59.5851 245.453 59.1111 244.605 58.9217 243.871C58.8921 243.746 58.8639 243.629 58.8541 243.511C58.7695 242.933 58.8817 242.443 59.1622 242.069C59.4428 241.695 59.8874 241.441 60.4752 241.348C60.7115 241.307 60.9665 241.296 61.2445 241.309C61.6639 241.331 62.1315 241.42 62.6333 241.573C62.9676 241.676 63.3262 241.811 63.6942 241.978C64.0677 242.149 64.4508 242.351 64.8584 242.586C65.2619 242.827 65.675 243.098 66.1085 243.408C66.7502 241.949 67.3834 240.84 67.9864 240.036C68.8046 238.944 69.5695 238.417 70.2264 238.319C70.2903 238.311 70.3596 238.306 70.4251 238.306C71.4882 238.292 72.2504 239.447 72.4879 241.17C72.6565 242.382 72.5612 243.869 72.1389 245.442C77.4164 245.684 79.2361 247.94 77.9684 249.631L77.9688 249.631Z" fill="#EA94FF"/>
<path d="M72.4885 241.17C72.657 242.382 72.5617 243.869 72.1394 245.441C77.417 245.683 79.2366 247.939 77.969 249.631C77.1776 250.686 75.1833 251.526 72.0727 251.508C72.9729 254.464 72.7318 256.607 71.9365 257.668C70.9186 259.026 68.9931 258.622 67.3901 255.913C67.2688 255.713 67.1551 255.502 67.0388 255.274C66.7516 254.714 66.4788 254.069 66.2291 253.338C60.5812 256.803 56.9541 254.667 59.8658 250.782C60.4573 249.993 61.3265 249.129 62.5015 248.22L62.5054 248.215C62.065 247.892 61.6681 247.577 61.3079 247.257C61.1377 247.1 60.978 246.951 60.8222 246.797C60.6717 246.647 60.5303 246.495 60.3942 246.348C59.5853 245.453 59.1112 244.605 58.9218 243.87C58.8923 243.745 58.8679 243.624 58.8542 243.511C58.7696 242.932 58.8818 242.443 59.1624 242.069C59.4429 241.694 59.8875 241.441 60.4754 241.348C60.7116 241.307 60.9667 241.295 61.2446 241.309C61.664 241.331 62.1317 241.42 62.6334 241.573C62.9678 241.675 63.3264 241.811 63.6944 241.978C64.0679 242.149 64.451 242.351 64.8586 242.586C65.2621 242.826 65.6752 243.098 66.1087 243.408C66.7504 241.948 67.3836 240.84 67.9866 240.036C68.8048 238.944 69.5697 238.417 70.2266 238.319C70.2905 238.311 70.3598 238.306 70.4253 238.306C71.4884 238.292 72.2506 239.447 72.4881 241.17L72.4885 241.17Z" fill="#B9F5FF"/>
</svg>
