<?xml version="1.0" encoding="UTF-8" standalone="no"?>
<svg
   width="159"
   height="159"
   viewBox="0 0 159 159"
   fill="none"
   version="1.1"
   id="svg5"
   sodipodi:docname="GHAST_Background_Green.svg"
   inkscape:version="1.4.2 (f4327f4, 2025-05-13)"
   xmlns:inkscape="http://www.inkscape.org/namespaces/inkscape"
   xmlns:sodipodi="http://sodipodi.sourceforge.net/DTD/sodipodi-0.dtd"
   xmlns="http://www.w3.org/2000/svg"
   xmlns:svg="http://www.w3.org/2000/svg">
  <sodipodi:namedview
     id="namedview5"
     pagecolor="#ffffff"
     bordercolor="#000000"
     borderopacity="0.25"
     inkscape:showpageshadow="2"
     inkscape:pageopacity="0.0"
     inkscape:pagecheckerboard="0"
     inkscape:deskcolor="#d1d1d1"
     inkscape:zoom="5.0754717"
     inkscape:cx="79.401487"
     inkscape:cy="79.5"
     inkscape:window-width="1920"
     inkscape:window-height="1009"
     inkscape:window-x="-8"
     inkscape:window-y="-8"
     inkscape:window-maximized="1"
     inkscape:current-layer="svg5" />
  <g
     clip-path="url(#clip0_2275_656)"
     id="g5"
     transform="scale(1.0074717,1.0062264)">
    <rect
       y="158.218"
       width="158.218"
       height="158.218"
       transform="rotate(-90,0,158.218)"
       fill="#d1ff61"
       id="rect1"
       x="0" />
    <path
       opacity="0.7"
       d="M 41.282,76.8898 53.7775,67.9204 49.0232,53.3826 c -2.6182,-7.9417 3.7619,-14.8462 10.8981,-14.8462 2.2307,0 4.5653,0.6727 6.6731,2.205 l 12.524,8.9974 12.4956,-8.9974 c 2.1361,-1.5323 4.4424,-2.205 6.6731,-2.205 7.1549,0 13.5159,6.9046 10.9169,14.8462 l -4.783,14.5378 12.496,8.9694 c 8.979,6.428 4.367,20.4333 -6.701,20.4333 H 94.7614 l -4.7827,14.5379 c -1.7203,5.204 -6.2856,7.82 -10.8698,7.82 -4.5842,0 -9.1685,-2.616 -10.8698,-7.82 L 63.4564,97.3231 H 48.0023 c -11.0683,0 -15.6714,-14.0053 -6.7203,-20.4333 z"
       fill="#c9fc98"
       id="path1" />
    <path
       opacity="0.7"
       d="m -37.8267,-2.219 12.4956,-8.9694 -4.7544,-14.5378 c -2.6182,-7.9416 3.7619,-14.8461 10.8982,-14.8461 2.2307,0 4.5653,0.6726 6.6731,2.2049 L 0.00972411,-29.37 12.5053,-38.3674 c 2.1362,-1.5322 4.4425,-2.2049 6.6731,-2.2049 7.1552,0 13.5164,6.9045 10.9171,14.8461 l -4.7827,14.5378 12.4955,8.96941 C 46.7877,4.20905 42.1752,18.2143 31.1069,18.2143 H 15.6528 L 10.8701,32.7522 C 9.14981,37.9563 4.58448,40.5723 2.56754e-4,40.5723 -4.58397,40.5723 -9.1682,37.9563 -10.8696,32.7522 l -4.7827,-14.5379 h -15.454 c -11.0683,0 -15.6714,-14.00526 -6.7204,-20.4333 z"
       fill="#c9fc98"
       id="path2" />
    <path
       opacity="0.7"
       d="m -37.8267,155.999 12.4956,-8.97 -4.7544,-14.538 c -2.6182,-7.941 3.7619,-14.846 10.8982,-14.846 2.2307,0 4.5653,0.673 6.6731,2.205 L 0.00972411,128.848 12.5053,119.85 c 2.1362,-1.532 4.4425,-2.205 6.6731,-2.205 7.1552,0 13.5164,6.905 10.9171,14.846 l -4.7827,14.538 12.4955,8.97 c 8.9794,6.428 4.3669,20.433 -6.7014,20.433 H 15.6528 L 10.8701,190.97 C 9.14981,196.174 4.58448,198.79 2.56754e-4,198.79 -4.58397,198.79 -9.1682,196.174 -10.8696,190.97 l -4.7827,-14.538 h -15.454 c -11.0683,0 -15.6714,-14.005 -6.7204,-20.433 z"
       fill="#c9fc98"
       id="path3" />
    <path
       opacity="0.7"
       d="m 120.391,-2.219 12.495,-8.9694 -4.754,-14.5378 c -2.618,-7.9416 3.762,-14.8461 10.898,-14.8461 2.231,0 4.566,0.6726 6.673,2.2049 l 12.524,8.9974 12.496,-8.9974 c 2.136,-1.5322 4.442,-2.2049 6.673,-2.2049 7.155,0 13.516,6.9045 10.917,14.8461 l -4.783,14.5378 12.496,8.96941 c 8.979,6.42804 4.367,20.43329 -6.702,20.43329 H 173.87 l -4.782,14.5379 c -1.721,5.2041 -6.286,7.8201 -10.87,7.8201 -4.584,0 -9.169,-2.616 -10.87,-7.8201 l -4.783,-14.5379 h -15.454 c -11.068,0 -15.671,-14.00526 -6.72,-20.4333 z"
       fill="#c9fc98"
       id="path4" />
    <path
       opacity="0.7"
       d="m 120.391,155.999 12.495,-8.97 -4.754,-14.538 c -2.618,-7.941 3.762,-14.846 10.898,-14.846 2.231,0 4.566,0.673 6.673,2.205 l 12.524,8.998 12.496,-8.998 c 2.136,-1.532 4.442,-2.205 6.673,-2.205 7.155,0 13.516,6.905 10.917,14.846 l -4.783,14.538 12.496,8.97 c 8.979,6.428 4.367,20.433 -6.702,20.433 H 173.87 l -4.782,14.538 c -1.721,5.204 -6.286,7.82 -10.87,7.82 -4.584,0 -9.169,-2.616 -10.87,-7.82 l -4.783,-14.538 h -15.454 c -11.068,0 -15.671,-14.005 -6.72,-20.433 z"
       fill="#c9fc98"
       id="path5" />
  </g>
  <defs
     id="defs5">
    <clipPath
       id="clip0_2275_656">
      <rect
         width="158.218"
         height="158.218"
         fill="white"
         id="rect5" />
    </clipPath>
  </defs>
</svg>
