<?xml version="1.0" encoding="UTF-8" standalone="no"?>
<svg
   width="1441"
   height="44"
   viewBox="0 0 1441 44"
   fill="none"
   version="1.1"
   id="svg1"
   sodipodi:docname="serrilhado.svg"
   inkscape:version="1.4.2 (f4327f4, 2025-05-13)"
   xmlns:inkscape="http://www.inkscape.org/namespaces/inkscape"
   xmlns:sodipodi="http://sodipodi.sourceforge.net/DTD/sodipodi-0.dtd"
   xmlns="http://www.w3.org/2000/svg"
   xmlns:svg="http://www.w3.org/2000/svg">
  <defs
     id="defs1" />
  <sodipodi:namedview
     id="namedview1"
     pagecolor="#ffffff"
     bordercolor="#000000"
     borderopacity="0.25"
     inkscape:showpageshadow="2"
     inkscape:pageopacity="0.0"
     inkscape:pagecheckerboard="0"
     inkscape:deskcolor="#d1d1d1"
     showgrid="false"
     inkscape:zoom="3.6203867"
     inkscape:cx="1581.3228"
     inkscape:cy="8.9769416"
     inkscape:window-width="1920"
     inkscape:window-height="1009"
     inkscape:window-x="-8"
     inkscape:window-y="-8"
     inkscape:window-maximized="1"
     inkscape:current-layer="svg1" />
  <path
     d="m 1470.5041,45.548119 c 11.2947,0 21.785,-0.247796 21.785,-0.247796 L 1439.8884,2.0293153 1409.9063,26.434538 1379.9242,2.0293153 1349.9422,26.434538 1319.9703,2.0293153 1289.9882,26.434538 1260.006,2.0293153 1230.024,26.434538 1200.052,2.0293153 1170.0598,26.434538 1140.0777,2.0293153 1110.0957,26.434538 1080.1136,2.0293153 1050.1417,26.434538 1020.1596,2.0293153 990.17752,26.434538 960.19547,2.0293153 930.22145,26.434538 900.23837,2.0293153 870.25632,26.434538 840.27325,2.0293153 810.29118,26.434538 780.31617,2.0293153 750.3341,26.434538 720.35204,2.0293153 690.36897,26.434538 660.39494,2.0293153 630.41188,26.434538 600.42982,2.0293153 570.44775,26.434538 540.46469,2.0293153 510.49067,26.434538 480.50761,2.0293153 450.52554,26.434538 420.54246,2.0293153 390.56845,26.434538 360.58538,2.0293153 330.60331,26.434538 300.62025,2.0293153 270.63819,26.434538 240.66317,2.0293153 210.68111,26.434538 180.69904,2.0293153 150.71597,26.434538 120.74195,2.0293153 90.759386,26.434538 60.776919,2.0293153 30.794454,26.434538 0.81196829,2.0293153 -51.892073,45.184779"
     fill="#6e44fe"
     id="path1"
     style="stroke-width:1.00612" />
</svg>
